<?xml version="1.0" encoding="UTF-8" standalone="no"?>
<!-- Created with Inkscape (http://www.inkscape.org/) -->

<svg
   width="115.0738mm"
   height="115.07381mm"
   viewBox="0 0 115.0738 115.07381"
   version="1.1"
   id="svg1"
   inkscape:version="1.3.2 (091e20e, 2023-11-25, custom)"
   sodipodi:docname="bingo.svg"
   inkscape:export-filename="bingo.png"
   inkscape:export-xdpi="113.01269"
   inkscape:export-ydpi="113.01269"
   xmlns:inkscape="http://www.inkscape.org/namespaces/inkscape"
   xmlns:sodipodi="http://sodipodi.sourceforge.net/DTD/sodipodi-0.dtd"
   xmlns="http://www.w3.org/2000/svg"
   xmlns:svg="http://www.w3.org/2000/svg">
  <sodipodi:namedview
     id="namedview1"
     pagecolor="#ffffff"
     bordercolor="#000000"
     borderopacity="0.25"
     inkscape:showpageshadow="2"
     inkscape:pageopacity="0.0"
     inkscape:pagecheckerboard="0"
     inkscape:deskcolor="#d1d1d1"
     inkscape:document-units="mm"
     inkscape:zoom="0.51213161"
     inkscape:cx="112.27583"
     inkscape:cy="381.73781"
     inkscape:window-width="1920"
     inkscape:window-height="1009"
     inkscape:window-x="-8"
     inkscape:window-y="-8"
     inkscape:window-maximized="1"
     inkscape:current-layer="layer1" />
  <defs
     id="defs1">
    <mask
       maskUnits="userSpaceOnUse"
       id="mask13">
      <circle
         style="fill:#ffffff;fill-opacity:1;stroke-width:2.265;stroke-miterlimit:3.2;stroke-dashoffset:18.6784"
         id="circle14"
         cx="103.2011"
         cy="126.58117"
         r="57.5369" />
    </mask>
  </defs>
  <g
     inkscape:label="Capa 1"
     inkscape:groupmode="layer"
     id="layer1"
     transform="translate(-45.664201,-69.044264)">
    <circle
       style="fill:#ea5454;fill-opacity:1;stroke-width:2.265;stroke-miterlimit:3.2;stroke-dashoffset:18.6784"
       id="circle13"
       cx="103.2011"
       cy="126.58117"
       r="57.5369" />
    <path
       id="path11"
       mask="url(#mask13)"
       style="display:inline;fill:#ff5959;stroke-width:3.92648;stroke-miterlimit:3.2;stroke-dashoffset:18.6784"
       d="m 158.48052,121.49701 c 0,30.74913 -23.37912,52.93638 -56.04914,52.93638 -32.670018,0 -60.06759,-20.72599 -60.067595,-51.47512 -10e-7,-30.749134 26.484289,-55.676232 59.154315,-55.67623 32.67002,1e-6 56.96243,23.465844 56.96242,54.21497 z"
       sodipodi:nodetypes="sssss" />
    <circle
       style="fill:#ffffff;stroke-width:1.28349;stroke-miterlimit:3.2;stroke-dashoffset:18.6784"
       id="circle1"
       cx="102.01383"
       cy="126.6725"
       r="32.60424" />
    <text
       xml:space="preserve"
       style="font-style:normal;font-variant:normal;font-weight:normal;font-stretch:normal;font-size:19.7556px;font-family:'Cascadia Code';-inkscape-font-specification:'Cascadia Code';fill:#000000;stroke-width:2.265;stroke-miterlimit:3.2;stroke-dashoffset:18.6784"
       x="73.428047"
       y="133.70482"
       id="text1"><tspan
         sodipodi:role="line"
         id="tspan1"
         style="font-style:normal;font-variant:normal;font-weight:normal;font-stretch:normal;font-size:19.7556px;font-family:'Cascadia Code';-inkscape-font-specification:'Cascadia Code';fill:#000000;stroke-width:2.265"
         x="73.428047"
         y="133.70482">BINGO</tspan></text>
    <path
       style="fill:#000000;stroke-width:2.765;stroke-miterlimit:3.2;stroke-dasharray:none;stroke-dashoffset:18.6784"
       d="M 92.059039,84.752766 58.08487,118.36162"
       id="path2" />
    <circle
       style="fill:none;stroke:#ffffff;stroke-width:2.829;stroke-miterlimit:3.2;stroke-dasharray:none;stroke-dashoffset:18.6784;stroke-opacity:1"
       id="circle3"
       cx="102.10516"
       cy="126.58119"
       r="38.939301" />
    <path
       style="fill:#ffffff;fill-opacity:0.360078;stroke:none;stroke-width:2.69301;stroke-miterlimit:3.2;stroke-dasharray:none;stroke-dashoffset:18.6784;stroke-opacity:1"
       id="path9"
       d="m 57.341309,96.256323 c -0.344906,0.665903 -0.739206,1.30923 -1.10421,1.965714 -0.556736,1.048702 -1.137644,2.085683 -1.671597,3.146373 -0.431739,0.85766 -0.564997,1.18082 -0.972132,2.08349 -1.004385,2.26615 -1.823784,4.60582 -2.576344,6.96552 -0.516948,1.74492 -0.97973,3.50544 -1.393952,5.27743 -0.26118,1.23987 -0.445859,2.49474 -0.549989,3.75724 -0.03292,0.439 -0.04951,0.87888 -0.06458,1.31875 -0.07203,2.12081 2.927239,2.22268 2.999272,0.10187 v 0 c 0.0132,-0.39251 0.02771,-0.78503 0.05639,-1.1768 0.08964,-1.1151 0.255741,-2.22273 0.481261,-3.31852 0.395553,-1.69517 0.839116,-3.37894 1.330934,-5.04881 0.71659,-2.25068 1.49702,-4.48225 2.453193,-6.64408 0.358568,-0.79702 0.513411,-1.16663 0.89476,-1.92442 0.52256,-1.0384 1.091353,-2.05344 1.635926,-3.08026 0.414425,-0.746086 0.870204,-1.471967 1.239425,-2.241347 0.835906,-1.95045 -1.922446,-3.132603 -2.758355,-1.18215 z" />
    <path
       style="fill:#ffffff;fill-opacity:0.358121;stroke:none;stroke-width:2.69301;stroke-miterlimit:3.2;stroke-dasharray:none;stroke-dashoffset:18.6784;stroke-opacity:1"
       id="path10"
       d="m 49.258547,128.47563 c -0.02474,0.84276 0.02917,1.68109 0.119677,2.51845 0.142441,1.03867 0.337023,2.06994 0.543465,3.0976 0.07959,0.35046 0.168597,0.69849 0.248435,1.04887 0.473163,2.06861 3.398608,1.39945 2.925445,-0.66915 v 0 c -0.07453,-0.32478 -0.154215,-0.64818 -0.231949,-0.97221 -0.189823,-0.93985 -0.366247,-1.88343 -0.502322,-2.83265 -0.08152,-0.72852 -0.12472,-1.45745 -0.101751,-2.19091 0,-2.12203 -3.001,-2.12203 -3.001,0 z" />
  </g>
</svg>
