<svg xmlns="http://www.w3.org/2000/svg" xmlns:xlink="http://www.w3.org/1999/xlink" version="1.1" width="256" height="256" viewBox="0 0 256 256" xml:space="preserve">
<g style="stroke: none; stroke-width: 0; stroke-dasharray: none; stroke-linecap: butt; stroke-linejoin: miter; stroke-miterlimit: 10; fill: none; fill-rule: nonzero; opacity: 1;" transform="translate(1.4065934065934016 1.4065934065934016) scale(2.81 2.81)">
	<path d="M 83.476 19.651 v 67.196 c 0 1.741 -1.412 3.153 -3.153 3.153 H 19.789 c -1.741 0 -3.153 -1.412 -3.153 -3.153 V 3.153 C 16.636 1.412 18.047 0 19.789 0 h 44.037 c 0.836 0 1.638 0.332 2.23 0.923 l 16.498 16.498 C 83.144 18.012 83.476 18.814 83.476 19.651 z" style="stroke: none; stroke-width: 1; stroke-dasharray: none; stroke-linecap: butt; stroke-linejoin: miter; stroke-miterlimit: 10; fill: rgb(220,223,225); fill-rule: nonzero; opacity: 1;" transform=" matrix(1 0 0 1 0 0) " stroke-linecap="round"/>
	<path d="M 83.476 18.345 H 68.004 c -1.587 0 -2.873 -1.286 -2.873 -2.873 V 0" style="stroke: none; stroke-width: 1; stroke-dasharray: none; stroke-linecap: butt; stroke-linejoin: miter; stroke-miterlimit: 10; fill: rgb(171,178,184); fill-rule: nonzero; opacity: 1;" transform=" matrix(1 0 0 1 0 0) " stroke-linecap="round"/>
	<path d="M 50.914 77.284 H 10.025 c -1.933 0 -3.501 -1.567 -3.501 -3.501 V 55.66 c 0 -1.933 1.567 -3.501 3.501 -3.501 h 40.889 c 1.933 0 3.501 1.567 3.501 3.501 v 18.123 C 54.415 75.717 52.847 77.284 50.914 77.284 z" style="stroke: none; stroke-width: 1; stroke-dasharray: none; stroke-linecap: butt; stroke-linejoin: miter; stroke-miterlimit: 10; fill: rgb(236,50,50); fill-rule: nonzero; opacity: 1;" transform=" matrix(1 0 0 1 0 0) " stroke-linecap="round"/>
	<path d="M 72.569 78.784 H 62.2 c -0.828 0 -1.5 -0.672 -1.5 -1.5 s 0.672 -1.5 1.5 -1.5 h 10.369 c 0.828 0 1.5 0.672 1.5 1.5 S 73.397 78.784 72.569 78.784 z" style="stroke: none; stroke-width: 1; stroke-dasharray: none; stroke-linecap: butt; stroke-linejoin: miter; stroke-miterlimit: 10; fill: rgb(171,178,184); fill-rule: nonzero; opacity: 1;" transform=" matrix(1 0 0 1 0 0) " stroke-linecap="round"/>
	<path d="M 72.569 66.222 H 62.2 c -0.828 0 -1.5 -0.672 -1.5 -1.5 s 0.672 -1.5 1.5 -1.5 h 10.369 c 0.828 0 1.5 0.672 1.5 1.5 S 73.397 66.222 72.569 66.222 z" style="stroke: none; stroke-width: 1; stroke-dasharray: none; stroke-linecap: butt; stroke-linejoin: miter; stroke-miterlimit: 10; fill: rgb(171,178,184); fill-rule: nonzero; opacity: 1;" transform=" matrix(1 0 0 1 0 0) " stroke-linecap="round"/>
	<path d="M 19.567 72.345 h -5.429 c -0.829 0 -1.5 -0.672 -1.5 -1.5 V 58.598 c 0 -0.828 0.671 -1.5 1.5 -1.5 s 1.5 0.672 1.5 1.5 v 10.747 h 3.929 c 0.829 0 1.5 0.672 1.5 1.5 S 20.396 72.345 19.567 72.345 z" style="stroke: none; stroke-width: 1; stroke-dasharray: none; stroke-linecap: butt; stroke-linejoin: miter; stroke-miterlimit: 10; fill: rgb(255,255,255); fill-rule: nonzero; opacity: 1;" transform=" matrix(1 0 0 1 0 0) " stroke-linecap="round"/>
	<path d="M 30.019 72.345 h -2.321 c -2.283 0 -4.14 -1.857 -4.14 -4.14 v -6.967 c 0 -2.283 1.857 -4.141 4.14 -4.141 h 2.321 c 2.283 0 4.141 1.857 4.141 4.141 v 6.967 C 34.16 70.487 32.302 72.345 30.019 72.345 z M 27.698 60.098 c -0.629 0 -1.14 0.512 -1.14 1.141 v 6.967 c 0 0.628 0.511 1.14 1.14 1.14 h 2.321 c 0.629 0 1.141 -0.512 1.141 -1.14 v -6.967 c 0 -0.629 -0.512 -1.141 -1.141 -1.141 H 27.698 z" style="stroke: none; stroke-width: 1; stroke-dasharray: none; stroke-linecap: butt; stroke-linejoin: miter; stroke-miterlimit: 10; fill: rgb(255,255,255); fill-rule: nonzero; opacity: 1;" transform=" matrix(1 0 0 1 0 0) " stroke-linecap="round"/>
	<path d="M 44.16 72.345 h -2.321 c -2.283 0 -4.141 -1.857 -4.141 -4.14 v -6.967 c 0 -2.283 1.857 -4.141 4.141 -4.141 h 2.986 c 0.829 0 1.5 0.672 1.5 1.5 s -0.671 1.5 -1.5 1.5 h -2.986 c -0.629 0 -1.141 0.512 -1.141 1.141 v 6.967 c 0 0.628 0.512 1.14 1.141 1.14 h 2.321 c 0.629 0 1.141 -0.512 1.141 -1.14 v -1.983 h -1.045 c -0.829 0 -1.5 -0.672 -1.5 -1.5 s 0.671 -1.5 1.5 -1.5 h 2.545 c 0.828 0 1.5 0.672 1.5 1.5 v 3.483 C 48.301 70.487 46.443 72.345 44.16 72.345 z" style="stroke: none; stroke-width: 1; stroke-dasharray: none; stroke-linecap: butt; stroke-linejoin: miter; stroke-miterlimit: 10; fill: rgb(255,255,255); fill-rule: nonzero; opacity: 1;" transform=" matrix(1 0 0 1 0 0) " stroke-linecap="round"/>
	<path d="M 72.569 53.659 H 62.2 c -0.828 0 -1.5 -0.672 -1.5 -1.5 s 0.672 -1.5 1.5 -1.5 h 10.369 c 0.828 0 1.5 0.672 1.5 1.5 S 73.397 53.659 72.569 53.659 z" style="stroke: none; stroke-width: 1; stroke-dasharray: none; stroke-linecap: butt; stroke-linejoin: miter; stroke-miterlimit: 10; fill: rgb(171,178,184); fill-rule: nonzero; opacity: 1;" transform=" matrix(1 0 0 1 0 0) " stroke-linecap="round"/>
	<path d="M 72.569 39.341 H 25.058 c -0.829 0 -1.5 -0.671 -1.5 -1.5 s 0.671 -1.5 1.5 -1.5 h 47.511 c 0.828 0 1.5 0.671 1.5 1.5 S 73.397 39.341 72.569 39.341 z" style="stroke: none; stroke-width: 1; stroke-dasharray: none; stroke-linecap: butt; stroke-linejoin: miter; stroke-miterlimit: 10; fill: rgb(171,178,184); fill-rule: nonzero; opacity: 1;" transform=" matrix(1 0 0 1 0 0) " stroke-linecap="round"/>
	<path d="M 58.251 26.778 H 25.058 c -0.829 0 -1.5 -0.671 -1.5 -1.5 s 0.671 -1.5 1.5 -1.5 h 33.193 c 0.828 0 1.5 0.671 1.5 1.5 S 59.079 26.778 58.251 26.778 z" style="stroke: none; stroke-width: 1; stroke-dasharray: none; stroke-linecap: butt; stroke-linejoin: miter; stroke-miterlimit: 10; fill: rgb(171,178,184); fill-rule: nonzero; opacity: 1;" transform=" matrix(1 0 0 1 0 0) " stroke-linecap="round"/>
	<path d="M 52.114 14.216 H 25.058 c -0.829 0 -1.5 -0.671 -1.5 -1.5 s 0.671 -1.5 1.5 -1.5 h 27.056 c 0.828 0 1.5 0.671 1.5 1.5 S 52.942 14.216 52.114 14.216 z" style="stroke: none; stroke-width: 1; stroke-dasharray: none; stroke-linecap: butt; stroke-linejoin: miter; stroke-miterlimit: 10; fill: rgb(171,178,184); fill-rule: nonzero; opacity: 1;" transform=" matrix(1 0 0 1 0 0) " stroke-linecap="round"/>
</g>
</svg>